<svg width="24" height="24" viewBox="0 0 24 24" xmlns="http://www.w3.org/2000/svg">
<g id="Icon/Close" clip-path="url(#clip0_373_44120)">
<path id="Union" fill-rule="evenodd" clip-rule="evenodd" d="M6.40598 5.34408C6.11308 5.05118 5.63821 5.05118 5.34532 5.34408C5.05242 5.63697 5.05242 6.11184 5.34532 6.40474L10.9404 11.9998L5.34519 17.595C5.0523 17.8879 5.0523 18.3628 5.34519 18.6557C5.63808 18.9486 6.11296 18.9486 6.40585 18.6557L12.0011 13.0605L17.5962 18.6556C17.8891 18.9485 18.364 18.9485 18.6569 18.6556C18.9498 18.3628 18.9498 17.8879 18.6569 17.595L13.0617 11.9998L18.6568 6.40476C18.9497 6.11187 18.9497 5.63699 18.6568 5.3441C18.3639 5.05121 17.889 5.05121 17.5961 5.3441L12.0011 10.9392L6.40598 5.34408Z"/>
</g>
<defs>
<clipPath id="clip0_373_44120">
<rect width="24" height="24"/>
</clipPath>
</defs>
</svg>
