<svg width="35" height="35" viewBox="0 0 35 35" fill="none" xmlns="http://www.w3.org/2000/svg">
<path fill-rule="evenodd" clip-rule="evenodd" d="M6.00742 24.5421C6.6789 23.161 7.94357 21.6187 9.43347 20.2805C7.27887 20.1775 5.14028 19.721 3.66009 18.9892C0.074232 17.2164 -0.420168 12.9553 1.10616 9.81585C2.63248 6.67635 5.86185 4.25626 9.86146 6.23359C11.4119 7.00012 13.0093 8.31807 14.3428 9.83641C14.4032 7.54561 14.8604 5.23297 15.6247 3.66081C17.3773 0.0559671 21.6096 -0.43122 24.7326 1.11272C27.8556 2.65666 30.2679 5.91296 28.3131 9.93375C27.5592 11.4844 26.2632 13.0805 24.7677 14.4148C26.9392 14.4982 29.162 14.9762 30.843 15.8072C34.8426 17.7846 34.9232 21.8411 33.3969 24.9806C31.8706 28.1201 28.2274 30.3356 24.6416 28.5628C23.151 27.8259 21.4703 26.3857 20.0639 24.7163C19.9851 26.8977 19.5158 29.1285 18.6958 30.8151C16.741 34.8358 12.7109 34.9071 9.58797 33.3632C6.46501 31.8192 4.25486 28.147 6.00742 24.5421ZM11.7429 14.7451C14.7452 16.2342 16.0816 19.8128 14.7901 22.9052C16.2587 19.8943 19.8137 18.5669 22.8963 19.8783C19.894 18.3892 18.5577 14.8106 19.8492 11.7182C18.3806 14.7291 14.8255 16.0565 11.7429 14.7451Z" fill="#B844F9"/>
</svg>
